<svg width="311" height="107" viewBox="0 0 311 107" fill="none" xmlns="http://www.w3.org/2000/svg">
<path d="M253.768 12.555V36.6778H265.076C266.625 36.6778 268.083 36.3696 269.449 35.7532C270.815 35.1088 272.01 34.2403 273.034 33.1476C274.059 32.055 274.86 30.7802 275.438 29.3233C276.042 27.8384 276.344 26.2694 276.344 24.6164C276.344 22.9634 276.042 21.4084 275.438 19.9515C274.86 18.4666 274.059 17.1778 273.034 16.0851C272.01 14.9925 270.815 14.1379 269.449 13.5216C268.083 12.8772 266.625 12.555 265.076 12.555H253.768ZM253.768 60.7586H242.461V0.493546H265.076C267.151 0.493546 269.147 0.787727 271.064 1.37609C272.982 1.93643 274.768 2.74893 276.423 3.81359C278.104 4.85023 279.627 6.111 280.993 7.59592C282.385 9.05281 283.567 10.6778 284.539 12.4709C285.537 14.264 286.299 16.1832 286.824 18.2285C287.375 20.2737 287.651 22.403 287.651 24.6164C287.651 26.6897 287.402 28.7069 286.903 30.6681C286.43 32.6293 285.734 34.4925 284.814 36.2576C283.921 38.0226 282.818 39.6476 281.505 41.1326C280.192 42.6175 278.721 43.9063 277.092 44.9989L312.42 106.931L266.415 48.6132L253.768 48.6972V60.7586Z" fill="black"/>
<path d="M215.709 49.7478C216.129 49.8879 216.549 49.986 216.97 50.042C217.39 50.07 217.81 50.0841 218.23 50.0841C219.281 50.0841 220.292 49.93 221.264 49.6218C222.236 49.3136 223.142 48.8793 223.983 48.319C224.849 47.7306 225.611 47.0302 226.268 46.2177C226.951 45.3772 227.502 44.4526 227.923 43.444L235.802 51.8912C234.804 53.4041 233.648 54.7629 232.335 55.9677C231.048 57.1724 229.643 58.195 228.12 59.0356C226.622 59.8761 225.033 60.5065 223.352 60.9267C221.697 61.375 219.99 61.5991 218.23 61.5991C215.262 61.5991 212.465 61.0108 209.838 59.8341C207.238 58.6573 204.953 57.0183 202.983 54.917C201.039 52.8157 199.503 50.3222 198.373 47.4364C197.244 44.5226 196.679 41.3287 196.679 37.8545C196.679 34.2963 197.244 31.0463 198.373 28.1045C199.503 25.1627 201.039 22.6552 202.983 20.5819C204.953 18.5086 207.238 16.8976 209.838 15.7489C212.465 14.6002 215.262 14.0259 218.23 14.0259C219.99 14.0259 221.711 14.25 223.392 14.6983C225.073 15.1466 226.662 15.7909 228.159 16.6315C229.682 17.472 231.101 18.5086 232.414 19.7414C233.727 20.9461 234.883 22.305 235.881 23.8179L215.709 49.7478ZM221.225 26.0873C220.726 25.8912 220.227 25.7651 219.728 25.7091C219.255 25.653 218.756 25.625 218.23 25.625C216.759 25.625 215.367 25.9192 214.054 26.5075C212.767 27.0679 211.638 27.8804 210.666 28.945C209.72 30.0097 208.972 31.2985 208.42 32.8114C207.868 34.2963 207.593 35.9774 207.593 37.8545C207.593 38.2748 207.606 38.7511 207.632 39.2834C207.685 39.8157 207.75 40.3621 207.829 40.9224C207.934 41.4547 208.052 41.9731 208.184 42.4774C208.315 42.9817 208.486 43.43 208.696 43.8222L221.225 26.0873Z" fill="black"/>
<path d="M160.59 77.9052H149.755V15.7489H152.355L156.65 21.1703C157.622 20.1897 158.686 19.2651 159.841 18.3966C160.997 17.528 162.192 16.7856 163.427 16.1692C164.687 15.5248 165.987 15.0205 167.327 14.6563C168.667 14.292 170.019 14.1099 171.385 14.1099C174.353 14.1099 177.137 14.6843 179.738 15.833C182.364 16.9537 184.649 18.5507 186.593 20.6239C188.563 22.6972 190.113 25.2048 191.242 28.1466C192.372 31.0604 192.936 34.2963 192.936 37.8545C192.936 41.5528 192.372 44.8869 191.242 47.8567C190.113 50.7985 188.563 53.306 186.593 55.3793C184.649 57.4246 182.364 58.9935 179.738 60.0862C177.137 61.1789 174.353 61.7252 171.385 61.7252C170.44 61.7252 169.494 61.6132 168.548 61.389C167.629 61.1649 166.71 60.8707 165.79 60.5065C164.897 60.1142 164.004 59.68 163.111 59.2037C162.245 58.7274 161.404 58.2371 160.59 57.7328V77.9052ZM182.141 37.8545C182.141 35.9494 181.852 34.2403 181.274 32.7274C180.723 31.2145 179.961 29.9397 178.989 28.903C178.017 27.8384 176.875 27.0259 175.561 26.4655C174.248 25.9052 172.856 25.625 171.385 25.625C169.914 25.625 168.522 25.9052 167.209 26.4655C165.922 27.0259 164.792 27.8384 163.821 28.903C162.849 29.9397 162.074 31.2145 161.496 32.7274C160.944 34.2403 160.669 35.9494 160.669 37.8545C160.669 39.6757 160.944 41.3427 161.496 42.8556C162.074 44.3685 162.849 45.6573 163.821 46.722C164.792 47.7866 165.922 48.6132 167.209 49.2015C168.522 49.7899 169.914 50.0841 171.385 50.0841C172.856 50.0841 174.248 49.7899 175.561 49.2015C176.875 48.6132 178.017 47.7866 178.989 46.722C179.961 45.6573 180.723 44.3685 181.274 42.8556C181.852 41.3427 182.141 39.6757 182.141 37.8545Z" fill="black"/>
<path d="M111.42 77.9052H100.585V15.7489H103.186L107.48 21.1703C108.452 20.1897 109.516 19.2651 110.671 18.3966C111.827 17.528 113.022 16.7856 114.257 16.1692C115.518 15.5248 116.818 15.0205 118.157 14.6563C119.497 14.292 120.849 14.1099 122.215 14.1099C125.183 14.1099 127.968 14.6843 130.568 15.833C133.194 16.9537 135.48 18.5507 137.423 20.6239C139.393 22.6972 140.943 25.2048 142.072 28.1466C143.202 31.0604 143.767 34.2963 143.767 37.8545C143.767 41.5528 143.202 44.8869 142.072 47.8567C140.943 50.7985 139.393 53.306 137.423 55.3793C135.48 57.4246 133.194 58.9935 130.568 60.0862C127.968 61.1789 125.183 61.7252 122.215 61.7252C121.27 61.7252 120.324 61.6132 119.379 61.389C118.459 61.1649 117.54 60.8707 116.621 60.5065C115.728 60.1142 114.835 59.68 113.942 59.2037C113.075 58.7274 112.234 58.2371 111.42 57.7328V77.9052ZM132.971 37.8545C132.971 35.9494 132.682 34.2403 132.104 32.7274C131.553 31.2145 130.791 29.9397 129.819 28.903C128.847 27.8384 127.705 27.0259 126.392 26.4655C125.078 25.9052 123.686 25.625 122.215 25.625C120.744 25.625 119.352 25.9052 118.039 26.4655C116.752 27.0259 115.623 27.8384 114.651 28.903C113.679 29.9397 112.904 31.2145 112.326 32.7274C111.775 34.2403 111.499 35.9494 111.499 37.8545C111.499 39.6757 111.775 41.3427 112.326 42.8556C112.904 44.3685 113.679 45.6573 114.651 46.722C115.623 47.7866 116.752 48.6132 118.039 49.2015C119.352 49.7899 120.744 50.0841 122.215 50.0841C123.686 50.0841 125.078 49.7899 126.392 49.2015C127.705 48.6132 128.847 47.7866 129.819 46.722C130.791 45.6573 131.553 44.3685 132.104 42.8556C132.682 41.3427 132.971 39.6757 132.971 37.8545Z" fill="black"/>
<path d="M92.351 60.7586H89.7507L85.5744 54.5808C84.5501 55.5614 83.46 56.486 82.3043 57.3545C81.1749 58.195 79.9798 58.9375 78.719 59.5819C77.4583 60.1983 76.1581 60.6886 74.8185 61.0528C73.5052 61.417 72.1657 61.5991 70.7998 61.5991C67.8318 61.5991 65.0345 61.0668 62.4079 60.0022C59.8076 58.9375 57.5224 57.3966 55.5525 55.3793C53.6088 53.3341 52.0722 50.8405 50.9428 47.8987C49.8134 44.9569 49.2487 41.6088 49.2487 37.8545C49.2487 34.3524 49.8134 31.1444 50.9428 28.2306C52.0722 25.2888 53.6088 22.7672 55.5525 20.6659C57.5224 18.5647 59.8076 16.9397 62.4079 15.7909C65.0345 14.6142 67.8318 14.0259 70.7998 14.0259C72.1657 14.0259 73.5184 14.208 74.8579 14.5722C76.1975 14.9364 77.4977 15.4407 78.7584 16.0851C80.0192 16.7295 81.2143 17.486 82.3437 18.3545C83.4994 19.2231 84.5763 20.1616 85.5744 21.1703L89.7507 15.833H92.351V60.7586ZM81.5163 37.8545C81.5163 36.2856 81.2274 34.7726 80.6496 33.3157C80.098 31.8308 79.3363 30.528 78.3644 29.4073C77.3926 28.2586 76.25 27.3481 74.9367 26.6756C73.6497 25.9752 72.2707 25.625 70.7998 25.625C69.329 25.625 67.9369 25.8912 66.6236 26.4235C65.3365 26.9558 64.2071 27.7403 63.2353 28.7769C62.2897 29.8136 61.5411 31.1024 60.9895 32.6433C60.4379 34.1563 60.1621 35.8933 60.1621 37.8545C60.1621 39.8157 60.4379 41.5668 60.9895 43.1078C61.5411 44.6207 62.2897 45.8955 63.2353 46.9321C64.2071 47.9688 65.3365 48.7532 66.6236 49.2856C67.9369 49.8179 69.329 50.0841 70.7998 50.0841C72.2707 50.0841 73.6497 49.7478 74.9367 49.0754C76.25 48.375 77.3926 47.4644 78.3644 46.3438C79.3363 45.195 80.098 43.8922 80.6496 42.4353C81.2274 40.9504 81.5163 39.4235 81.5163 37.8545Z" fill="black"/>
<path d="M0 18.5647C0 16.0711 0.446521 13.7317 1.33956 11.5463C2.2326 9.361 3.44084 7.45583 4.96426 5.83083C6.51395 4.17781 8.31316 2.87501 10.3619 1.92242C12.4106 0.969839 14.6039 0.493546 16.9415 0.493546H42.866V12.555H16.9415C16.1535 12.555 15.4181 12.7091 14.7352 13.0173C14.0523 13.3254 13.4482 13.7597 12.9228 14.3201C12.4238 14.8524 12.0298 15.4828 11.7409 16.2112C11.4519 16.9397 11.3075 17.7241 11.3075 18.5647C11.3075 19.4052 11.4519 20.2037 11.7409 20.9601C12.0298 21.6886 12.4238 22.333 12.9228 22.8933C13.4482 23.4257 14.0523 23.8459 14.7352 24.1541C15.4181 24.4623 16.1535 24.6164 16.9415 24.6164H28.249C30.5867 24.6164 32.7799 25.0927 34.8286 26.0453C36.9036 26.9698 38.7028 28.2586 40.2263 29.9116C41.7759 31.5366 42.9842 33.4558 43.851 35.6692C44.744 37.8545 45.1905 40.194 45.1905 42.6875C45.1905 45.181 44.744 47.5205 43.851 49.7058C39.2544 60.9539 23.705 79.1379 23.705 79.1379L1.33956 106.034C23.705 67.0345 32.4515 50.4483 33.4496 47.7586C34.4478 45.069 33.883 43.528 33.883 42.6875C33.883 41.847 33.7386 41.0625 33.4496 40.3341C33.1607 39.6056 32.7536 38.9752 32.2283 38.4429C31.7292 37.8826 31.1383 37.4483 30.4553 37.1401C29.7724 36.8319 29.037 36.6778 28.249 36.6778H16.9415C14.6039 36.6778 12.4106 36.2015 10.3619 35.2489C8.31316 34.2963 6.51395 33.0076 4.96426 31.3826C3.44084 29.7295 2.2326 27.8104 1.33956 25.625C0.446521 23.4116 0 21.0582 0 18.5647Z" fill="black"/>
</svg>
